<?xml version="1.0" encoding="UTF-8" standalone="no"?>
<!-- Created with Inkscape (http://www.inkscape.org/) -->

<svg
   width="126.17492mm"
   height="24.505966mm"
   viewBox="0 0 126.17492 24.505966"
   version="1.1"
   id="svg1"
   inkscape:version="1.3.2 (091e20e, 2023-11-25, custom)"
   sodipodi:docname="geofencer.svg"
   xml:space="preserve"
   inkscape:export-filename="geofencer2.svg"
   inkscape:export-xdpi="96"
   inkscape:export-ydpi="96"
   xmlns:inkscape="http://www.inkscape.org/namespaces/inkscape"
   xmlns:sodipodi="http://sodipodi.sourceforge.net/DTD/sodipodi-0.dtd"
   xmlns="http://www.w3.org/2000/svg"
   xmlns:svg="http://www.w3.org/2000/svg"><sodipodi:namedview
     id="namedview1"
     pagecolor="#ffffff"
     bordercolor="#000000"
     borderopacity="0.25"
     inkscape:showpageshadow="2"
     inkscape:pageopacity="0.0"
     inkscape:pagecheckerboard="0"
     inkscape:deskcolor="#d1d1d1"
     inkscape:document-units="mm"
     showguides="true"
     inkscape:zoom="1.4778115"
     inkscape:cx="197.92781"
     inkscape:cy="88.306256"
     inkscape:window-width="2560"
     inkscape:window-height="1369"
     inkscape:window-x="-8"
     inkscape:window-y="-8"
     inkscape:window-maximized="1"
     inkscape:current-layer="layer1" /><defs
     id="defs1"><inkscape:path-effect
       effect="simplify"
       id="path-effect28"
       is_visible="true"
       lpeversion="1.3"
       threshold="11.4754"
       steps="1"
       smooth_angles="360"
       helper_size="0"
       simplify_individual_paths="false"
       simplify_just_coalesce="false" /><inkscape:path-effect
       effect="simplify"
       id="path-effect27"
       is_visible="true"
       lpeversion="1.3"
       threshold="11.4754"
       steps="1"
       smooth_angles="360"
       helper_size="0"
       simplify_individual_paths="false"
       simplify_just_coalesce="false" /><inkscape:path-effect
       effect="simplify"
       id="path-effect26"
       is_visible="true"
       lpeversion="1.3"
       threshold="11.4754"
       steps="1"
       smooth_angles="360"
       helper_size="0"
       simplify_individual_paths="false"
       simplify_just_coalesce="false" /><inkscape:path-effect
       effect="simplify"
       id="path-effect25"
       is_visible="true"
       lpeversion="1.3"
       threshold="11.4754"
       steps="1"
       smooth_angles="360"
       helper_size="0"
       simplify_individual_paths="false"
       simplify_just_coalesce="false" /><inkscape:path-effect
       effect="simplify"
       id="path-effect24"
       is_visible="true"
       lpeversion="1.3"
       threshold="11.4754"
       steps="1"
       smooth_angles="360"
       helper_size="0"
       simplify_individual_paths="false"
       simplify_just_coalesce="false" /><inkscape:path-effect
       effect="spiro"
       id="path-effect14"
       is_visible="true"
       lpeversion="1" /><inkscape:path-effect
       effect="simplify"
       id="path-effect13"
       is_visible="true"
       lpeversion="1.3"
       threshold="64.5161"
       steps="1"
       smooth_angles="360"
       helper_size="0"
       simplify_individual_paths="false"
       simplify_just_coalesce="false" /><inkscape:path-effect
       effect="spiro"
       id="path-effect12"
       is_visible="true"
       lpeversion="1" /><inkscape:path-effect
       effect="simplify"
       id="path-effect11"
       is_visible="true"
       lpeversion="1.3"
       threshold="0.00645161"
       steps="1"
       smooth_angles="360"
       helper_size="0"
       simplify_individual_paths="false"
       simplify_just_coalesce="false" /><inkscape:path-effect
       effect="spiro"
       id="path-effect10"
       is_visible="true"
       lpeversion="1" /><inkscape:path-effect
       effect="simplify"
       id="path-effect9"
       is_visible="true"
       lpeversion="1.3"
       threshold="0.00645161"
       steps="1"
       smooth_angles="360"
       helper_size="0"
       simplify_individual_paths="false"
       simplify_just_coalesce="false" /><inkscape:path-effect
       effect="spiro"
       id="path-effect8"
       is_visible="true"
       lpeversion="1" /><inkscape:path-effect
       effect="simplify"
       id="path-effect7"
       is_visible="true"
       lpeversion="1.3"
       threshold="0.0108163"
       steps="1"
       smooth_angles="360"
       helper_size="0"
       simplify_individual_paths="false"
       simplify_just_coalesce="false" /></defs><g
     inkscape:label="Taso 1"
     inkscape:groupmode="layer"
     id="layer1"
     transform="translate(30.368587,-161.74863)"><path
       id="rect581"
       style="fill:#e08f43;fill-opacity:1;stroke:none;stroke-width:0.172462;stroke-linecap:butt;stroke-linejoin:miter;stroke-dasharray:none;stroke-dashoffset:0;stroke-opacity:1"
       d="m -29.966163,163.57415 v 20.45859 h 19.731058 v -20.45859 z m 13.342638,1.77917 3.315365,6.5495 -6.550187,4.28582 3.39654,3.2348 -4.447536,2.83013 -5.013953,-7.7629 5.094495,-7.43944 z" /><path
       style="font-size:15.3202px;font-family:Txt;-inkscape-font-specification:Txt;fill:#00112b;stroke:#58818b;stroke-width:2.14723"
       d="M 5.5717234,179.97935 H -0.11350703 L -2.028532,178.07181 v -7.44317 l 1.91502497,-1.91502 H 5.4445538 v 0.23938 h -5.46829404 l -1.75793306,1.76541 v 7.26363 l 1.75793306,1.75793 H 5.3248647 v -5.26632 H 3.6043345 v -0.24686 h 1.9673889 z m 11.0787186,-5.63287 -1.959908,1.95991 H 9.2521621 v 1.67565 l 1.7579329,1.75793 h 3.628075 v 0.23938 h -3.717842 l -1.9150246,-1.90754 v -3.77021 l 1.9150246,-1.91502 h 3.770206 z m -0.336625,0 -1.720531,-1.71305 h -3.583191 l -1.7579329,1.75794 v 1.67564 h 5.3411239 z m 11.325577,3.72533 -1.915025,1.90754 h -3.770205 l -1.915025,-1.90754 v -3.77021 l 1.915025,-1.91502 h 3.770205 l 1.915025,1.91502 z m -0.246858,-0.0898 v -3.59067 l -1.765414,-1.75794 h -3.583191 l -1.757934,1.75794 v 3.59067 l 1.757934,1.75793 h 3.583191 z M 38.546059,168.953 h -7.226227 v 5.27379 h 3.553269 v 0.24686 h -3.553269 v 5.39349 h -0.246859 v -11.15352 h 7.473086 z m 11.205889,5.39348 -1.959908,1.95991 h -5.438372 v 1.67565 l 1.757933,1.75793 h 3.628075 v 0.23938 h -3.717841 l -1.915025,-1.90754 v -3.77021 l 1.915025,-1.91502 h 3.770205 z m -0.336625,0 -1.72053,-1.71305 h -3.583192 l -1.757933,1.75794 v 1.67564 h 5.341125 z m 11.325578,5.52066 h -0.246858 v -5.47577 l -1.765414,-1.75794 h -1.742972 l -3.598152,3.59816 v 3.63555 h -0.246859 v -7.3534 h 0.246859 v 3.38122 l 3.508385,-3.50838 h 1.929986 l 1.915025,1.91502 z m 10.906663,0.11221 h -5.55806 l -1.915025,-1.90754 v -3.77021 l 1.915025,-1.91502 h 5.55806 v 0.24685 H 66.17927 l -1.757933,1.75794 v 3.59067 l 1.757933,1.75793 h 5.468294 z m 11.20589,-5.63287 -1.959909,1.95991 h -5.438371 v 1.67565 l 1.757933,1.75793 h 3.628074 v 0.23938 H 77.12334 l -1.915025,-1.90754 v -3.77021 l 1.915025,-1.91502 h 3.770205 z m -0.336626,0 -1.72053,-1.71305 h -3.583191 l -1.757933,1.75794 v 1.67564 h 5.341124 z m 11.288176,-0.0898 -0.179534,0.18701 -1.795336,-1.8103 h -1.742972 l -3.598152,3.59816 v 3.63555 h -0.246859 v -7.3534 h 0.246859 v 3.38122 l 3.508386,-3.50838 h 1.929986 z"
       id="text185-5-8-2"
       aria-label="GeoFencer" /><text
       xml:space="preserve"
       style="font-size:3.175px;font-family:Consolas;-inkscape-font-specification:Consolas;opacity:1;fill:#6c5d53;stroke-width:0.4"
       x="44.11092"
       y="185.02348"
       id="text1"><tspan
         sodipodi:role="line"
         id="tspan1"
         style="fill:#6c5d53;stroke-width:0.4"
         x="44.11092"
         y="185.02348">A Naapurinpojat Solution</tspan></text></g></svg>
